<mxfile host="app.diagrams.net" agent="Mozilla/5.0 (Windows NT 10.0; Win64; x64) AppleWebKit/537.36 (KHTML, like Gecko) Chrome/134.0.0.0 Safari/537.36" version="26.1.0">
  <diagram id="R2lEEEUBdFMjLlhIrx00" name="Page-1">
    <mxGraphModel grid="1" page="1" gridSize="10" guides="1" tooltips="1" connect="1" arrows="1" fold="1" pageScale="1" pageWidth="850" pageHeight="1100" math="0" shadow="0" extFonts="Permanent Marker^https://fonts.googleapis.com/css?family=Permanent+Marker">
      <root>
        <mxCell id="0" />
        <mxCell id="1" parent="0" />
        <mxCell id="Js0cXWCq9HuopqKwZKAy-24" value="&lt;font style=&quot;vertical-align: inherit;&quot;&gt;&lt;font style=&quot;vertical-align: inherit; font-size: 14px;&quot;&gt;&lt;b&gt;&lt;u&gt;Логическая схема&amp;nbsp; к заданию 4 Light лекции по PostgreSQL&lt;/u&gt;&lt;/b&gt;&lt;/font&gt;&lt;/font&gt;" style="text;html=1;align=center;verticalAlign=middle;resizable=0;points=[];autosize=1;strokeColor=none;fillColor=none;" vertex="1" parent="1">
          <mxGeometry x="175" y="-2" width="430" height="30" as="geometry" />
        </mxCell>
        <mxCell id="eTRv6Jro5ZE7D0PdQX2G-57" value="&lt;font style=&quot;vertical-align: inherit;&quot;&gt;&lt;font style=&quot;vertical-align: inherit;&quot;&gt;Hotel&lt;/font&gt;&lt;/font&gt;&lt;div&gt;&lt;font style=&quot;vertical-align: inherit;&quot;&gt;&lt;font style=&quot;vertical-align: inherit;&quot;&gt;&lt;font style=&quot;vertical-align: inherit;&quot;&gt;&lt;font style=&quot;vertical-align: inherit;&quot;&gt;(Отель)&lt;/font&gt;&lt;/font&gt;&lt;/font&gt;&lt;/font&gt;&lt;/div&gt;" style="whiteSpace=wrap;html=1;align=center;" vertex="1" parent="1">
          <mxGeometry x="300" y="-928" width="100" height="40" as="geometry" />
        </mxCell>
        <mxCell id="eTRv6Jro5ZE7D0PdQX2G-58" value="&lt;font style=&quot;vertical-align: inherit;&quot;&gt;&lt;font style=&quot;vertical-align: inherit;&quot;&gt;&lt;font style=&quot;vertical-align: inherit;&quot;&gt;&lt;font style=&quot;vertical-align: inherit;&quot;&gt;Room type&lt;/font&gt;&lt;/font&gt;&lt;/font&gt;&lt;/font&gt;&lt;div&gt;&lt;font style=&quot;vertical-align: inherit;&quot;&gt;&lt;font style=&quot;vertical-align: inherit;&quot;&gt;&lt;font style=&quot;vertical-align: inherit;&quot;&gt;&lt;font style=&quot;vertical-align: inherit;&quot;&gt;&lt;font style=&quot;vertical-align: inherit;&quot;&gt;&lt;font style=&quot;vertical-align: inherit;&quot;&gt;(Тип номера)&lt;/font&gt;&lt;/font&gt;&lt;/font&gt;&lt;/font&gt;&lt;/font&gt;&lt;/font&gt;&lt;/div&gt;" style="whiteSpace=wrap;html=1;align=center;" vertex="1" parent="1">
          <mxGeometry x="295" y="-788" width="100" height="40" as="geometry" />
        </mxCell>
        <mxCell id="eTRv6Jro5ZE7D0PdQX2G-59" value="&lt;font style=&quot;vertical-align: inherit;&quot;&gt;&lt;font style=&quot;vertical-align: inherit;&quot;&gt;Room&lt;/font&gt;&lt;/font&gt;&lt;div&gt;&lt;font style=&quot;vertical-align: inherit;&quot;&gt;&lt;font style=&quot;vertical-align: inherit;&quot;&gt;&lt;font style=&quot;vertical-align: inherit;&quot;&gt;&lt;font style=&quot;vertical-align: inherit;&quot;&gt;(Номер)&lt;/font&gt;&lt;/font&gt;&lt;/font&gt;&lt;/font&gt;&lt;/div&gt;" style="whiteSpace=wrap;html=1;align=center;" vertex="1" parent="1">
          <mxGeometry x="290" y="-678" width="100" height="40" as="geometry" />
        </mxCell>
        <mxCell id="eTRv6Jro5ZE7D0PdQX2G-60" value="&lt;font style=&quot;vertical-align: inherit;&quot;&gt;&lt;font style=&quot;vertical-align: inherit;&quot;&gt;Сlient&lt;/font&gt;&lt;/font&gt;&lt;div&gt;&lt;font style=&quot;vertical-align: inherit;&quot;&gt;&lt;font style=&quot;vertical-align: inherit;&quot;&gt;&lt;font style=&quot;vertical-align: inherit;&quot;&gt;&lt;font style=&quot;vertical-align: inherit;&quot;&gt;(Клиент)&lt;/font&gt;&lt;/font&gt;&lt;/font&gt;&lt;/font&gt;&lt;/div&gt;" style="whiteSpace=wrap;html=1;align=center;" vertex="1" parent="1">
          <mxGeometry x="295" y="-548" width="100" height="40" as="geometry" />
        </mxCell>
        <mxCell id="eTRv6Jro5ZE7D0PdQX2G-61" value="&lt;div&gt;&lt;span&gt;&lt;span style=&quot;font-size: 9pt; font-family: Arial, sans-serif; color: rgb(31, 31, 31); background-color: rgb(248, 249, 250); font-variant-numeric: normal; font-variant-east-asian: normal; font-variant-alternates: normal; font-variant-position: normal; font-variant-emoji: normal; vertical-align: baseline; white-space-collapse: preserve;&quot;&gt;&lt;font style=&quot;vertical-align: inherit;&quot;&gt;&lt;font style=&quot;vertical-align: inherit;&quot;&gt;&lt;font style=&quot;vertical-align: inherit;&quot;&gt;&lt;font style=&quot;vertical-align: inherit;&quot;&gt;&lt;font style=&quot;vertical-align: inherit;&quot;&gt;&lt;font style=&quot;vertical-align: inherit;&quot;&gt;&lt;br&gt;&lt;/font&gt;&lt;/font&gt;&lt;/font&gt;&lt;/font&gt;&lt;/font&gt;&lt;/font&gt;&lt;/span&gt;&lt;/span&gt;&lt;/div&gt;&lt;div&gt;&lt;span&gt;&lt;span style=&quot;font-size: 9pt; font-family: Arial, sans-serif; color: rgb(31, 31, 31); background-color: rgb(248, 249, 250); font-variant-numeric: normal; font-variant-east-asian: normal; font-variant-alternates: normal; font-variant-position: normal; font-variant-emoji: normal; vertical-align: baseline; white-space-collapse: preserve;&quot;&gt;&lt;font style=&quot;vertical-align: inherit;&quot;&gt;&lt;font style=&quot;vertical-align: inherit;&quot;&gt;&lt;font style=&quot;vertical-align: inherit;&quot;&gt;&lt;font style=&quot;vertical-align: inherit;&quot;&gt;&lt;font style=&quot;vertical-align: inherit;&quot;&gt;&lt;font style=&quot;vertical-align: inherit;&quot;&gt;Booking&lt;/font&gt;&lt;/font&gt;&lt;/font&gt;&lt;/font&gt;&lt;/font&gt;&lt;/font&gt;&lt;/span&gt;&lt;/span&gt;&lt;/div&gt;&lt;span id=&quot;docs-internal-guid-69115214-7fff-f056-1302-b31d74c3d229&quot;&gt;&lt;span style=&quot;font-size: 9pt; font-family: Arial, sans-serif; color: rgb(31, 31, 31); background-color: rgb(248, 249, 250); font-variant-numeric: normal; font-variant-east-asian: normal; font-variant-alternates: normal; font-variant-position: normal; font-variant-emoji: normal; vertical-align: baseline; white-space-collapse: preserve;&quot;&gt;&lt;font style=&quot;vertical-align: inherit;&quot;&gt;&lt;font style=&quot;vertical-align: inherit;&quot;&gt;&lt;font style=&quot;vertical-align: inherit;&quot;&gt;&lt;font style=&quot;vertical-align: inherit;&quot;&gt;(Бронирование)&lt;/font&gt;&lt;/font&gt;&lt;/font&gt;&lt;/font&gt;&lt;/span&gt;&lt;/span&gt;&lt;div&gt;&lt;br&gt;&lt;/div&gt;" style="whiteSpace=wrap;html=1;align=center;" vertex="1" parent="1">
          <mxGeometry x="610" y="-618" width="100" height="40" as="geometry" />
        </mxCell>
        <mxCell id="eTRv6Jro5ZE7D0PdQX2G-62" value="" style="edgeStyle=entityRelationEdgeStyle;fontSize=12;html=1;endArrow=ERmany;rounded=0;entryX=1;entryY=0.25;entryDx=0;entryDy=0;exitX=0.5;exitY=1;exitDx=0;exitDy=0;" edge="1" parent="1" source="eTRv6Jro5ZE7D0PdQX2G-108" target="eTRv6Jro5ZE7D0PdQX2G-59">
          <mxGeometry width="100" height="100" relative="1" as="geometry">
            <mxPoint x="400" y="-768" as="sourcePoint" />
            <mxPoint x="280" y="-668" as="targetPoint" />
            <Array as="points">
              <mxPoint x="240" y="-698" />
              <mxPoint x="265" y="-708" />
              <mxPoint x="260" y="-688" />
              <mxPoint x="220" y="-698" />
              <mxPoint x="220" y="-698" />
              <mxPoint x="265" y="-708" />
            </Array>
          </mxGeometry>
        </mxCell>
        <mxCell id="eTRv6Jro5ZE7D0PdQX2G-63" value="" style="edgeStyle=entityRelationEdgeStyle;fontSize=12;html=1;endArrow=ERmany;rounded=0;exitX=1;exitY=0.5;exitDx=0;exitDy=0;entryX=0;entryY=0.25;entryDx=0;entryDy=0;" edge="1" parent="1" source="eTRv6Jro5ZE7D0PdQX2G-111" target="eTRv6Jro5ZE7D0PdQX2G-61">
          <mxGeometry width="100" height="100" relative="1" as="geometry">
            <mxPoint x="290" y="-638" as="sourcePoint" />
            <mxPoint x="500" y="-758" as="targetPoint" />
          </mxGeometry>
        </mxCell>
        <mxCell id="eTRv6Jro5ZE7D0PdQX2G-64" value="&lt;span style=&quot;border-bottom: 1px dotted&quot;&gt;&lt;font style=&quot;vertical-align: inherit;&quot;&gt;&lt;font style=&quot;vertical-align: inherit;&quot;&gt;Количество звезд&lt;/font&gt;&lt;/font&gt;&lt;/span&gt;" style="ellipse;whiteSpace=wrap;html=1;align=center;" vertex="1" parent="1">
          <mxGeometry x="170" y="-1028" width="100" height="40" as="geometry" />
        </mxCell>
        <mxCell id="eTRv6Jro5ZE7D0PdQX2G-65" value="&lt;span style=&quot;border-bottom: 1px dotted&quot;&gt;&lt;font style=&quot;vertical-align: inherit;&quot;&gt;&lt;font style=&quot;vertical-align: inherit;&quot;&gt;Описание&lt;/font&gt;&lt;/font&gt;&lt;/span&gt;" style="ellipse;whiteSpace=wrap;html=1;align=center;" vertex="1" parent="1">
          <mxGeometry x="290" y="-1028" width="100" height="40" as="geometry" />
        </mxCell>
        <mxCell id="eTRv6Jro5ZE7D0PdQX2G-66" value="&lt;span style=&quot;border-bottom: 1px dotted&quot;&gt;&lt;font style=&quot;vertical-align: inherit;&quot;&gt;&lt;font style=&quot;vertical-align: inherit;&quot;&gt;Страна&lt;/font&gt;&lt;/font&gt;&lt;/span&gt;" style="ellipse;whiteSpace=wrap;html=1;align=center;" vertex="1" parent="1">
          <mxGeometry x="410" y="-1028" width="100" height="40" as="geometry" />
        </mxCell>
        <mxCell id="eTRv6Jro5ZE7D0PdQX2G-67" value="&lt;span style=&quot;border-bottom: 1px dotted&quot;&gt;&lt;font style=&quot;vertical-align: inherit;&quot;&gt;&lt;font style=&quot;vertical-align: inherit;&quot;&gt;Город&lt;/font&gt;&lt;/font&gt;&lt;/span&gt;" style="ellipse;whiteSpace=wrap;html=1;align=center;" vertex="1" parent="1">
          <mxGeometry x="540" y="-1028" width="100" height="40" as="geometry" />
        </mxCell>
        <mxCell id="eTRv6Jro5ZE7D0PdQX2G-68" value="&lt;font style=&quot;vertical-align: inherit;&quot;&gt;&lt;font style=&quot;vertical-align: inherit;&quot;&gt;Название&lt;/font&gt;&lt;/font&gt;" style="ellipse;whiteSpace=wrap;html=1;align=center;" vertex="1" parent="1">
          <mxGeometry x="60" y="-1028" width="100" height="40" as="geometry" />
        </mxCell>
        <mxCell id="eTRv6Jro5ZE7D0PdQX2G-69" value="" style="endArrow=none;html=1;rounded=0;entryX=0.5;entryY=1;entryDx=0;entryDy=0;exitX=0;exitY=0;exitDx=0;exitDy=0;" edge="1" parent="1" source="eTRv6Jro5ZE7D0PdQX2G-57" target="eTRv6Jro5ZE7D0PdQX2G-68">
          <mxGeometry width="50" height="50" relative="1" as="geometry">
            <mxPoint x="320" y="-658" as="sourcePoint" />
            <mxPoint x="370" y="-708" as="targetPoint" />
          </mxGeometry>
        </mxCell>
        <mxCell id="eTRv6Jro5ZE7D0PdQX2G-70" value="" style="endArrow=none;html=1;rounded=0;" edge="1" parent="1" source="eTRv6Jro5ZE7D0PdQX2G-57" target="eTRv6Jro5ZE7D0PdQX2G-64">
          <mxGeometry width="50" height="50" relative="1" as="geometry">
            <mxPoint x="320" y="-658" as="sourcePoint" />
            <mxPoint x="370" y="-708" as="targetPoint" />
          </mxGeometry>
        </mxCell>
        <mxCell id="eTRv6Jro5ZE7D0PdQX2G-71" value="" style="endArrow=none;html=1;rounded=0;entryX=0.5;entryY=1;entryDx=0;entryDy=0;exitX=0.5;exitY=0;exitDx=0;exitDy=0;" edge="1" parent="1" source="eTRv6Jro5ZE7D0PdQX2G-57" target="eTRv6Jro5ZE7D0PdQX2G-65">
          <mxGeometry width="50" height="50" relative="1" as="geometry">
            <mxPoint x="320" y="-658" as="sourcePoint" />
            <mxPoint x="370" y="-708" as="targetPoint" />
          </mxGeometry>
        </mxCell>
        <mxCell id="eTRv6Jro5ZE7D0PdQX2G-72" value="" style="endArrow=none;html=1;rounded=0;entryX=0.44;entryY=1;entryDx=0;entryDy=0;entryPerimeter=0;exitX=0.75;exitY=0;exitDx=0;exitDy=0;" edge="1" parent="1" source="eTRv6Jro5ZE7D0PdQX2G-57" target="eTRv6Jro5ZE7D0PdQX2G-66">
          <mxGeometry width="50" height="50" relative="1" as="geometry">
            <mxPoint x="320" y="-658" as="sourcePoint" />
            <mxPoint x="370" y="-708" as="targetPoint" />
          </mxGeometry>
        </mxCell>
        <mxCell id="eTRv6Jro5ZE7D0PdQX2G-73" value="" style="endArrow=none;html=1;rounded=0;entryX=0.43;entryY=0.975;entryDx=0;entryDy=0;entryPerimeter=0;exitX=1;exitY=0;exitDx=0;exitDy=0;" edge="1" parent="1" source="eTRv6Jro5ZE7D0PdQX2G-57" target="eTRv6Jro5ZE7D0PdQX2G-67">
          <mxGeometry width="50" height="50" relative="1" as="geometry">
            <mxPoint x="320" y="-658" as="sourcePoint" />
            <mxPoint x="370" y="-708" as="targetPoint" />
          </mxGeometry>
        </mxCell>
        <mxCell id="eTRv6Jro5ZE7D0PdQX2G-74" value="&lt;font style=&quot;vertical-align: inherit;&quot;&gt;&lt;font style=&quot;vertical-align: inherit; font-size: 14px;&quot;&gt;&lt;b&gt;&lt;u&gt;Концептуальная схема&amp;nbsp; к заданию 4 Light лекции по PostgreSQL&lt;/u&gt;&lt;/b&gt;&lt;/font&gt;&lt;/font&gt;" style="text;html=1;align=center;verticalAlign=middle;resizable=0;points=[];autosize=1;strokeColor=none;fillColor=none;" vertex="1" parent="1">
          <mxGeometry x="75" y="-1070" width="470" height="30" as="geometry" />
        </mxCell>
        <mxCell id="eTRv6Jro5ZE7D0PdQX2G-75" value="&lt;font style=&quot;vertical-align: inherit;&quot;&gt;&lt;font style=&quot;vertical-align: inherit;&quot;&gt;Название отеля&lt;/font&gt;&lt;/font&gt;" style="ellipse;whiteSpace=wrap;html=1;align=center;" vertex="1" parent="1">
          <mxGeometry x="160" y="-838" width="100" height="40" as="geometry" />
        </mxCell>
        <mxCell id="eTRv6Jro5ZE7D0PdQX2G-76" value="&lt;span style=&quot;border-bottom: 1px dotted&quot;&gt;&lt;font style=&quot;vertical-align: inherit;&quot;&gt;&lt;font style=&quot;vertical-align: inherit;&quot;&gt;Стоимость за ночь&lt;/font&gt;&lt;/font&gt;&lt;/span&gt;" style="ellipse;whiteSpace=wrap;html=1;align=center;" vertex="1" parent="1">
          <mxGeometry x="280" y="-878" width="100" height="40" as="geometry" />
        </mxCell>
        <mxCell id="eTRv6Jro5ZE7D0PdQX2G-77" value="&lt;span style=&quot;border-bottom: 1px dotted&quot;&gt;&lt;font style=&quot;vertical-align: inherit;&quot;&gt;&lt;font style=&quot;vertical-align: inherit;&quot;&gt;Описание&lt;/font&gt;&lt;/font&gt;&lt;/span&gt;" style="ellipse;whiteSpace=wrap;html=1;align=center;" vertex="1" parent="1">
          <mxGeometry x="180" y="-898" width="100" height="40" as="geometry" />
        </mxCell>
        <mxCell id="eTRv6Jro5ZE7D0PdQX2G-78" value="" style="endArrow=none;html=1;rounded=0;entryX=0.5;entryY=1;entryDx=0;entryDy=0;exitX=0.5;exitY=0;exitDx=0;exitDy=0;" edge="1" parent="1" source="eTRv6Jro5ZE7D0PdQX2G-58" target="eTRv6Jro5ZE7D0PdQX2G-77">
          <mxGeometry width="50" height="50" relative="1" as="geometry">
            <mxPoint x="320" y="-658" as="sourcePoint" />
            <mxPoint x="370" y="-708" as="targetPoint" />
          </mxGeometry>
        </mxCell>
        <mxCell id="eTRv6Jro5ZE7D0PdQX2G-79" value="" style="endArrow=none;html=1;rounded=0;entryX=0.5;entryY=1;entryDx=0;entryDy=0;exitX=0.58;exitY=0.05;exitDx=0;exitDy=0;exitPerimeter=0;" edge="1" parent="1" source="eTRv6Jro5ZE7D0PdQX2G-58" target="eTRv6Jro5ZE7D0PdQX2G-76">
          <mxGeometry width="50" height="50" relative="1" as="geometry">
            <mxPoint x="320" y="-658" as="sourcePoint" />
            <mxPoint x="370" y="-708" as="targetPoint" />
          </mxGeometry>
        </mxCell>
        <mxCell id="eTRv6Jro5ZE7D0PdQX2G-80" value="" style="endArrow=none;html=1;rounded=0;entryX=0.5;entryY=1;entryDx=0;entryDy=0;exitX=0.37;exitY=0;exitDx=0;exitDy=0;exitPerimeter=0;" edge="1" parent="1" source="eTRv6Jro5ZE7D0PdQX2G-58" target="eTRv6Jro5ZE7D0PdQX2G-75">
          <mxGeometry width="50" height="50" relative="1" as="geometry">
            <mxPoint x="320" y="-658" as="sourcePoint" />
            <mxPoint x="370" y="-708" as="targetPoint" />
          </mxGeometry>
        </mxCell>
        <mxCell id="eTRv6Jro5ZE7D0PdQX2G-81" value="&lt;span style=&quot;border-bottom: 1px dotted&quot;&gt;&lt;font style=&quot;vertical-align: inherit;&quot;&gt;&lt;font style=&quot;vertical-align: inherit;&quot;&gt;Номер комнаты&lt;/font&gt;&lt;/font&gt;&lt;/span&gt;" style="ellipse;whiteSpace=wrap;html=1;align=center;" vertex="1" parent="1">
          <mxGeometry x="290" y="-738" width="100" height="40" as="geometry" />
        </mxCell>
        <mxCell id="eTRv6Jro5ZE7D0PdQX2G-82" value="" style="endArrow=none;html=1;rounded=0;entryX=0.5;entryY=1;entryDx=0;entryDy=0;exitX=0.58;exitY=0.025;exitDx=0;exitDy=0;exitPerimeter=0;" edge="1" parent="1" source="eTRv6Jro5ZE7D0PdQX2G-59" target="eTRv6Jro5ZE7D0PdQX2G-81">
          <mxGeometry width="50" height="50" relative="1" as="geometry">
            <mxPoint x="320" y="-658" as="sourcePoint" />
            <mxPoint x="370" y="-708" as="targetPoint" />
          </mxGeometry>
        </mxCell>
        <mxCell id="eTRv6Jro5ZE7D0PdQX2G-83" value="&lt;span style=&quot;border-bottom: 1px dotted&quot;&gt;&lt;font style=&quot;vertical-align: inherit;&quot;&gt;&lt;font style=&quot;vertical-align: inherit;&quot;&gt;Дата и время выезда&lt;/font&gt;&lt;/font&gt;&lt;/span&gt;" style="ellipse;whiteSpace=wrap;html=1;align=center;" vertex="1" parent="1">
          <mxGeometry x="580" y="-768" width="100" height="40" as="geometry" />
        </mxCell>
        <mxCell id="eTRv6Jro5ZE7D0PdQX2G-84" value="&lt;span style=&quot;border-bottom: 1px dotted&quot;&gt;&lt;font style=&quot;vertical-align: inherit;&quot;&gt;&lt;font style=&quot;vertical-align: inherit;&quot;&gt;Дата и время заезда&lt;/font&gt;&lt;/font&gt;&lt;/span&gt;" style="ellipse;whiteSpace=wrap;html=1;align=center;" vertex="1" parent="1">
          <mxGeometry x="530" y="-718" width="100" height="40" as="geometry" />
        </mxCell>
        <mxCell id="eTRv6Jro5ZE7D0PdQX2G-85" value="&lt;span style=&quot;border-bottom: 1px dotted&quot;&gt;&lt;font style=&quot;vertical-align: inherit;&quot;&gt;&lt;font style=&quot;vertical-align: inherit;&quot;&gt;Отметка о предоплате&lt;/font&gt;&lt;/font&gt;&lt;/span&gt;" style="ellipse;whiteSpace=wrap;html=1;align=center;" vertex="1" parent="1">
          <mxGeometry x="640" y="-718" width="100" height="40" as="geometry" />
        </mxCell>
        <mxCell id="eTRv6Jro5ZE7D0PdQX2G-86" value="" style="endArrow=none;html=1;rounded=0;entryX=0.5;entryY=1;entryDx=0;entryDy=0;exitX=0.18;exitY=0.025;exitDx=0;exitDy=0;exitPerimeter=0;" edge="1" parent="1" source="eTRv6Jro5ZE7D0PdQX2G-61" target="eTRv6Jro5ZE7D0PdQX2G-84">
          <mxGeometry width="50" height="50" relative="1" as="geometry">
            <mxPoint x="320" y="-658" as="sourcePoint" />
            <mxPoint x="370" y="-708" as="targetPoint" />
          </mxGeometry>
        </mxCell>
        <mxCell id="eTRv6Jro5ZE7D0PdQX2G-87" value="" style="endArrow=none;html=1;rounded=0;entryX=0.5;entryY=1;entryDx=0;entryDy=0;exitX=0.36;exitY=0;exitDx=0;exitDy=0;exitPerimeter=0;" edge="1" parent="1" source="eTRv6Jro5ZE7D0PdQX2G-61" target="eTRv6Jro5ZE7D0PdQX2G-83">
          <mxGeometry width="50" height="50" relative="1" as="geometry">
            <mxPoint x="320" y="-658" as="sourcePoint" />
            <mxPoint x="370" y="-708" as="targetPoint" />
          </mxGeometry>
        </mxCell>
        <mxCell id="eTRv6Jro5ZE7D0PdQX2G-88" value="" style="endArrow=none;html=1;rounded=0;entryX=0.5;entryY=1;entryDx=0;entryDy=0;exitX=0.75;exitY=0;exitDx=0;exitDy=0;" edge="1" parent="1" source="eTRv6Jro5ZE7D0PdQX2G-61" target="eTRv6Jro5ZE7D0PdQX2G-85">
          <mxGeometry width="50" height="50" relative="1" as="geometry">
            <mxPoint x="320" y="-658" as="sourcePoint" />
            <mxPoint x="370" y="-708" as="targetPoint" />
          </mxGeometry>
        </mxCell>
        <mxCell id="eTRv6Jro5ZE7D0PdQX2G-89" value="Страна" style="ellipse;whiteSpace=wrap;html=1;align=center;" vertex="1" parent="1">
          <mxGeometry x="290" y="-618" width="100" height="40" as="geometry" />
        </mxCell>
        <mxCell id="eTRv6Jro5ZE7D0PdQX2G-90" value="&lt;span style=&quot;border-bottom: 1px dotted&quot;&gt;&lt;font style=&quot;vertical-align: inherit;&quot;&gt;&lt;font style=&quot;vertical-align: inherit;&quot;&gt;e-mail&lt;/font&gt;&lt;/font&gt;&lt;/span&gt;" style="ellipse;whiteSpace=wrap;html=1;align=center;" vertex="1" parent="1">
          <mxGeometry x="140" y="-628" width="100" height="40" as="geometry" />
        </mxCell>
        <mxCell id="eTRv6Jro5ZE7D0PdQX2G-91" value="&lt;span style=&quot;border-bottom: 1px dotted&quot;&gt;&lt;font style=&quot;vertical-align: inherit;&quot;&gt;&lt;font style=&quot;vertical-align: inherit;&quot;&gt;ФИО&lt;/font&gt;&lt;/font&gt;&lt;/span&gt;" style="ellipse;whiteSpace=wrap;html=1;align=center;" vertex="1" parent="1">
          <mxGeometry x="90" y="-568" width="100" height="40" as="geometry" />
        </mxCell>
        <mxCell id="eTRv6Jro5ZE7D0PdQX2G-92" value="&lt;span style=&quot;border-bottom: 1px dotted&quot;&gt;&lt;font style=&quot;vertical-align: inherit;&quot;&gt;&lt;font style=&quot;vertical-align: inherit;&quot;&gt;Номер телефона&lt;/font&gt;&lt;/font&gt;&lt;/span&gt;" style="ellipse;whiteSpace=wrap;html=1;align=center;" vertex="1" parent="1">
          <mxGeometry x="110" y="-508" width="100" height="40" as="geometry" />
        </mxCell>
        <mxCell id="eTRv6Jro5ZE7D0PdQX2G-93" value="" style="endArrow=none;html=1;rounded=0;exitX=0.5;exitY=1;exitDx=0;exitDy=0;" edge="1" parent="1" source="eTRv6Jro5ZE7D0PdQX2G-90" target="eTRv6Jro5ZE7D0PdQX2G-60">
          <mxGeometry width="50" height="50" relative="1" as="geometry">
            <mxPoint x="320" y="-658" as="sourcePoint" />
            <mxPoint x="370" y="-708" as="targetPoint" />
          </mxGeometry>
        </mxCell>
        <mxCell id="eTRv6Jro5ZE7D0PdQX2G-94" value="" style="endArrow=none;html=1;rounded=0;entryX=0.5;entryY=1;entryDx=0;entryDy=0;exitX=0.57;exitY=-0.05;exitDx=0;exitDy=0;exitPerimeter=0;" edge="1" parent="1" source="eTRv6Jro5ZE7D0PdQX2G-60" target="eTRv6Jro5ZE7D0PdQX2G-89">
          <mxGeometry width="50" height="50" relative="1" as="geometry">
            <mxPoint x="320" y="-658" as="sourcePoint" />
            <mxPoint x="370" y="-708" as="targetPoint" />
          </mxGeometry>
        </mxCell>
        <mxCell id="eTRv6Jro5ZE7D0PdQX2G-95" value="" style="endArrow=none;html=1;rounded=0;exitX=0.57;exitY=1.075;exitDx=0;exitDy=0;exitPerimeter=0;entryX=0;entryY=0;entryDx=0;entryDy=0;" edge="1" parent="1" source="eTRv6Jro5ZE7D0PdQX2G-91" target="eTRv6Jro5ZE7D0PdQX2G-60">
          <mxGeometry width="50" height="50" relative="1" as="geometry">
            <mxPoint x="320" y="-658" as="sourcePoint" />
            <mxPoint x="290" y="-548" as="targetPoint" />
          </mxGeometry>
        </mxCell>
        <mxCell id="eTRv6Jro5ZE7D0PdQX2G-96" value="" style="endArrow=none;html=1;rounded=0;entryX=1;entryY=0.5;entryDx=0;entryDy=0;exitX=0;exitY=0.5;exitDx=0;exitDy=0;" edge="1" parent="1" source="eTRv6Jro5ZE7D0PdQX2G-60" target="eTRv6Jro5ZE7D0PdQX2G-92">
          <mxGeometry width="50" height="50" relative="1" as="geometry">
            <mxPoint x="320" y="-658" as="sourcePoint" />
            <mxPoint x="370" y="-708" as="targetPoint" />
          </mxGeometry>
        </mxCell>
        <mxCell id="eTRv6Jro5ZE7D0PdQX2G-97" value="" style="edgeStyle=entityRelationEdgeStyle;fontSize=12;html=1;endArrow=ERmany;rounded=0;entryX=1;entryY=0.25;entryDx=0;entryDy=0;exitX=0.5;exitY=1;exitDx=0;exitDy=0;" edge="1" parent="1" source="eTRv6Jro5ZE7D0PdQX2G-105" target="eTRv6Jro5ZE7D0PdQX2G-58">
          <mxGeometry width="100" height="100" relative="1" as="geometry">
            <mxPoint x="400" y="-908" as="sourcePoint" />
            <mxPoint x="390" y="-738" as="targetPoint" />
          </mxGeometry>
        </mxCell>
        <mxCell id="eTRv6Jro5ZE7D0PdQX2G-98" value="Включает" style="shape=rhombus;perimeter=rhombusPerimeter;whiteSpace=wrap;html=1;align=center;" vertex="1" parent="1">
          <mxGeometry x="80" y="-788" width="120" height="60" as="geometry" />
        </mxCell>
        <mxCell id="eTRv6Jro5ZE7D0PdQX2G-99" value="" style="edgeStyle=entityRelationEdgeStyle;fontSize=12;html=1;endArrow=ERmany;rounded=0;entryX=0;entryY=0.5;entryDx=0;entryDy=0;exitX=0.5;exitY=1;exitDx=0;exitDy=0;" edge="1" parent="1" source="eTRv6Jro5ZE7D0PdQX2G-98" target="eTRv6Jro5ZE7D0PdQX2G-59">
          <mxGeometry width="100" height="100" relative="1" as="geometry">
            <mxPoint x="290" y="-798" as="sourcePoint" />
            <mxPoint x="390" y="-898" as="targetPoint" />
          </mxGeometry>
        </mxCell>
        <mxCell id="eTRv6Jro5ZE7D0PdQX2G-100" value="Бронирует" style="shape=rhombus;perimeter=rhombusPerimeter;whiteSpace=wrap;html=1;align=center;" vertex="1" parent="1">
          <mxGeometry x="440" y="-558" width="120" height="60" as="geometry" />
        </mxCell>
        <mxCell id="eTRv6Jro5ZE7D0PdQX2G-101" value="" style="edgeStyle=entityRelationEdgeStyle;fontSize=12;html=1;endArrow=ERmany;rounded=0;entryX=0;entryY=0.75;entryDx=0;entryDy=0;exitX=1;exitY=0.5;exitDx=0;exitDy=0;" edge="1" parent="1" source="eTRv6Jro5ZE7D0PdQX2G-100" target="eTRv6Jro5ZE7D0PdQX2G-61">
          <mxGeometry width="100" height="100" relative="1" as="geometry">
            <mxPoint x="290" y="-798" as="sourcePoint" />
            <mxPoint x="390" y="-898" as="targetPoint" />
          </mxGeometry>
        </mxCell>
        <mxCell id="eTRv6Jro5ZE7D0PdQX2G-102" value="" style="endArrow=none;html=1;rounded=0;entryX=0;entryY=0.5;entryDx=0;entryDy=0;exitX=1;exitY=0.5;exitDx=0;exitDy=0;" edge="1" parent="1" source="eTRv6Jro5ZE7D0PdQX2G-60" target="eTRv6Jro5ZE7D0PdQX2G-100">
          <mxGeometry relative="1" as="geometry">
            <mxPoint x="260" y="-848" as="sourcePoint" />
            <mxPoint x="420" y="-848" as="targetPoint" />
          </mxGeometry>
        </mxCell>
        <mxCell id="eTRv6Jro5ZE7D0PdQX2G-103" value="" style="endArrow=none;html=1;rounded=0;exitX=0.5;exitY=0;exitDx=0;exitDy=0;" edge="1" parent="1" source="eTRv6Jro5ZE7D0PdQX2G-98">
          <mxGeometry relative="1" as="geometry">
            <mxPoint x="260" y="-848" as="sourcePoint" />
            <mxPoint x="140" y="-908" as="targetPoint" />
          </mxGeometry>
        </mxCell>
        <mxCell id="eTRv6Jro5ZE7D0PdQX2G-104" value="" style="endArrow=none;html=1;rounded=0;entryX=0;entryY=0.5;entryDx=0;entryDy=0;" edge="1" parent="1" target="eTRv6Jro5ZE7D0PdQX2G-57">
          <mxGeometry relative="1" as="geometry">
            <mxPoint x="140" y="-908" as="sourcePoint" />
            <mxPoint x="420" y="-848" as="targetPoint" />
          </mxGeometry>
        </mxCell>
        <mxCell id="eTRv6Jro5ZE7D0PdQX2G-105" value="Классифицирует" style="shape=rhombus;perimeter=rhombusPerimeter;whiteSpace=wrap;html=1;align=center;" vertex="1" parent="1">
          <mxGeometry x="410" y="-868" width="120" height="60" as="geometry" />
        </mxCell>
        <mxCell id="eTRv6Jro5ZE7D0PdQX2G-106" value="" style="endArrow=none;html=1;rounded=0;entryX=0.5;entryY=0;entryDx=0;entryDy=0;" edge="1" parent="1" target="eTRv6Jro5ZE7D0PdQX2G-105">
          <mxGeometry relative="1" as="geometry">
            <mxPoint x="470" y="-908" as="sourcePoint" />
            <mxPoint x="420" y="-848" as="targetPoint" />
          </mxGeometry>
        </mxCell>
        <mxCell id="eTRv6Jro5ZE7D0PdQX2G-107" value="" style="endArrow=none;html=1;rounded=0;exitX=1;exitY=0.5;exitDx=0;exitDy=0;" edge="1" parent="1" source="eTRv6Jro5ZE7D0PdQX2G-57">
          <mxGeometry relative="1" as="geometry">
            <mxPoint x="260" y="-848" as="sourcePoint" />
            <mxPoint x="470" y="-908" as="targetPoint" />
          </mxGeometry>
        </mxCell>
        <mxCell id="eTRv6Jro5ZE7D0PdQX2G-108" value="Распределяет" style="shape=rhombus;perimeter=rhombusPerimeter;whiteSpace=wrap;html=1;align=center;" vertex="1" parent="1">
          <mxGeometry x="410" y="-748" width="120" height="60" as="geometry" />
        </mxCell>
        <mxCell id="eTRv6Jro5ZE7D0PdQX2G-109" value="" style="endArrow=none;html=1;rounded=0;entryX=0.5;entryY=0;entryDx=0;entryDy=0;" edge="1" parent="1" target="eTRv6Jro5ZE7D0PdQX2G-108">
          <mxGeometry relative="1" as="geometry">
            <mxPoint x="470" y="-768" as="sourcePoint" />
            <mxPoint x="420" y="-848" as="targetPoint" />
          </mxGeometry>
        </mxCell>
        <mxCell id="eTRv6Jro5ZE7D0PdQX2G-110" value="" style="endArrow=none;html=1;rounded=0;exitX=1;exitY=0.5;exitDx=0;exitDy=0;" edge="1" parent="1" source="eTRv6Jro5ZE7D0PdQX2G-58">
          <mxGeometry relative="1" as="geometry">
            <mxPoint x="260" y="-848" as="sourcePoint" />
            <mxPoint x="470" y="-768" as="targetPoint" />
          </mxGeometry>
        </mxCell>
        <mxCell id="eTRv6Jro5ZE7D0PdQX2G-111" value="Выбирает" style="shape=rhombus;perimeter=rhombusPerimeter;whiteSpace=wrap;html=1;align=center;" vertex="1" parent="1">
          <mxGeometry x="430" y="-688" width="120" height="60" as="geometry" />
        </mxCell>
        <mxCell id="eTRv6Jro5ZE7D0PdQX2G-112" value="" style="endArrow=none;html=1;rounded=0;entryX=0;entryY=0.5;entryDx=0;entryDy=0;" edge="1" parent="1" source="eTRv6Jro5ZE7D0PdQX2G-59" target="eTRv6Jro5ZE7D0PdQX2G-111">
          <mxGeometry relative="1" as="geometry">
            <mxPoint x="260" y="-848" as="sourcePoint" />
            <mxPoint x="420" y="-848" as="targetPoint" />
          </mxGeometry>
        </mxCell>
        <mxCell id="eTRv6Jro5ZE7D0PdQX2G-206" value="Client" style="swimlane;childLayout=stackLayout;horizontal=1;startSize=20;horizontalStack=0;rounded=1;fontSize=14;fontStyle=0;strokeWidth=2;resizeParent=0;resizeLast=1;shadow=0;dashed=0;align=center;arcSize=4;whiteSpace=wrap;html=1;" vertex="1" parent="1">
          <mxGeometry x="250" y="770" width="310" height="120" as="geometry" />
        </mxCell>
        <mxCell id="eTRv6Jro5ZE7D0PdQX2G-207" value="client_id&amp;nbsp; &amp;nbsp; &amp;nbsp; &amp;nbsp; &amp;nbsp; &amp;nbsp; number&amp;nbsp; &amp;nbsp;Уникальный&amp;nbsp;&amp;nbsp;&lt;span style=&quot;background-color: transparent; color: light-dark(rgb(0, 0, 0), rgb(255, 255, 255));&quot;&gt;идентификатор&lt;/span&gt;&lt;div&gt;full_name&amp;nbsp; &amp;nbsp; &amp;nbsp; &amp;nbsp; &amp;nbsp;&amp;nbsp;&lt;span style=&quot;background-color: transparent; color: light-dark(rgb(0, 0, 0), rgb(255, 255, 255));&quot;&gt;string&amp;nbsp; &amp;nbsp; &amp;nbsp;&amp;nbsp;&lt;/span&gt;&lt;span style=&quot;background-color: transparent; color: light-dark(rgb(0, 0, 0), rgb(255, 255, 255));&quot;&gt;&amp;nbsp; &amp;nbsp;ФИО клиента&lt;/span&gt;&lt;/div&gt;&lt;div&gt;phone_number&amp;nbsp;&amp;nbsp;&lt;span style=&quot;background-color: transparent; color: light-dark(rgb(0, 0, 0), rgb(255, 255, 255));&quot;&gt;string&lt;/span&gt;&lt;span style=&quot;background-color: transparent; color: light-dark(rgb(0, 0, 0), rgb(255, 255, 255));&quot;&gt;&amp;nbsp; &amp;nbsp; &amp;nbsp; &amp;nbsp; &amp;nbsp; № телефона&lt;/span&gt;&lt;/div&gt;&lt;div&gt;email&amp;nbsp; &amp;nbsp; &amp;nbsp; &amp;nbsp; &amp;nbsp; &amp;nbsp; &amp;nbsp; &amp;nbsp; &amp;nbsp;&amp;nbsp;&lt;span style=&quot;background-color: transparent; color: light-dark(rgb(0, 0, 0), rgb(255, 255, 255));&quot;&gt;string&lt;/span&gt;&lt;span style=&quot;background-color: transparent; color: light-dark(rgb(0, 0, 0), rgb(255, 255, 255));&quot;&gt;&amp;nbsp; &amp;nbsp; &amp;nbsp; &amp;nbsp; &amp;nbsp; Эл. почта&lt;/span&gt;&lt;/div&gt;&lt;div&gt;country&amp;nbsp; &amp;nbsp; &amp;nbsp; &amp;nbsp; &amp;nbsp; &amp;nbsp; &amp;nbsp; &amp;nbsp;&lt;span style=&quot;background-color: transparent; color: light-dark(rgb(0, 0, 0), rgb(255, 255, 255));&quot;&gt;string&amp;nbsp; &amp;nbsp; &amp;nbsp;&lt;/span&gt;&lt;span style=&quot;background-color: transparent; color: light-dark(rgb(0, 0, 0), rgb(255, 255, 255));&quot;&gt;&amp;nbsp; &amp;nbsp; &amp;nbsp;Страна&amp;nbsp;&lt;/span&gt;&lt;/div&gt;" style="align=left;strokeColor=none;fillColor=none;spacingLeft=4;spacingRight=4;fontSize=12;verticalAlign=top;resizable=0;rotatable=0;part=1;html=1;whiteSpace=wrap;" vertex="1" parent="eTRv6Jro5ZE7D0PdQX2G-206">
          <mxGeometry y="20" width="310" height="100" as="geometry" />
        </mxCell>
        <mxCell id="eTRv6Jro5ZE7D0PdQX2G-208" value="Booking&amp;nbsp; (бронирование)" style="swimlane;childLayout=stackLayout;horizontal=1;startSize=30;horizontalStack=0;rounded=1;fontSize=14;fontStyle=0;strokeWidth=2;resizeParent=0;resizeLast=1;shadow=0;dashed=0;align=center;arcSize=4;whiteSpace=wrap;html=1;" vertex="1" parent="1">
          <mxGeometry x="210" y="570" width="350" height="130" as="geometry" />
        </mxCell>
        <mxCell id="eTRv6Jro5ZE7D0PdQX2G-209" value="booking_id&amp;nbsp; &amp;nbsp; &amp;nbsp; &amp;nbsp; &amp;nbsp; &amp;nbsp; &amp;nbsp; &amp;nbsp; number&amp;nbsp;&amp;nbsp; &amp;nbsp; &amp;nbsp; &amp;nbsp;Уникальный&amp;nbsp;&amp;nbsp;&lt;span style=&quot;color: light-dark(rgb(0, 0, 0), rgb(255, 255, 255)); background-color: transparent;&quot;&gt;идентификатор&lt;/span&gt;&lt;div&gt;client_id&amp;nbsp; &amp;nbsp; &amp;nbsp; &amp;nbsp; &amp;nbsp; &amp;nbsp; &amp;nbsp; &amp;nbsp; &amp;nbsp; &amp;nbsp;&amp;nbsp;&lt;span style=&quot;background-color: transparent; color: light-dark(rgb(0, 0, 0), rgb(255, 255, 255));&quot;&gt;number&amp;nbsp;&amp;nbsp;&lt;/span&gt;&lt;span style=&quot;background-color: transparent; color: light-dark(rgb(0, 0, 0), rgb(255, 255, 255));&quot;&gt;&amp;nbsp; &amp;nbsp; &amp;nbsp; Ссылка на клиента&lt;/span&gt;&lt;/div&gt;&lt;div&gt;room_id&amp;nbsp; &amp;nbsp; &amp;nbsp; &amp;nbsp; &amp;nbsp; &amp;nbsp; &amp;nbsp; &amp;nbsp; &amp;nbsp; &amp;nbsp; &amp;nbsp;&lt;span style=&quot;background-color: transparent; color: light-dark(rgb(0, 0, 0), rgb(255, 255, 255));&quot;&gt;number&amp;nbsp; &lt;/span&gt;&lt;span style=&quot;background-color: transparent; color: light-dark(rgb(0, 0, 0), rgb(255, 255, 255));&quot;&gt;&amp;nbsp; &amp;nbsp; &amp;nbsp;Ссылка на номер&amp;nbsp;&lt;/span&gt;&lt;/div&gt;&lt;div&gt;check_in_date&amp;nbsp; &amp;nbsp; &amp;nbsp; &amp;nbsp; &amp;nbsp; datetime&amp;nbsp; &amp;nbsp; &amp;nbsp; Дата и время заезда&lt;/div&gt;&lt;div&gt;check_out_date&amp;nbsp; &amp;nbsp; &amp;nbsp; &amp;nbsp; datetime&amp;nbsp; &amp;nbsp; &amp;nbsp; Дата и время выезда&lt;/div&gt;&lt;div&gt;prepaynment_mark&amp;nbsp; &amp;nbsp;string&amp;nbsp; &amp;nbsp; &amp;nbsp; &amp;nbsp; &amp;nbsp; Отметка о предоплате&lt;/div&gt;" style="align=left;strokeColor=none;fillColor=none;spacingLeft=4;spacingRight=4;fontSize=12;verticalAlign=top;resizable=0;rotatable=0;part=1;html=1;whiteSpace=wrap;" vertex="1" parent="eTRv6Jro5ZE7D0PdQX2G-208">
          <mxGeometry y="30" width="350" height="90" as="geometry" />
        </mxCell>
        <mxCell id="eTRv6Jro5ZE7D0PdQX2G-210" style="align=left;strokeColor=none;fillColor=none;spacingLeft=4;spacingRight=4;fontSize=12;verticalAlign=top;resizable=0;rotatable=0;part=1;html=1;whiteSpace=wrap;" vertex="1" parent="eTRv6Jro5ZE7D0PdQX2G-208">
          <mxGeometry y="120" width="350" as="geometry" />
        </mxCell>
        <mxCell id="eTRv6Jro5ZE7D0PdQX2G-211" style="align=left;strokeColor=none;fillColor=none;spacingLeft=4;spacingRight=4;fontSize=12;verticalAlign=top;resizable=0;rotatable=0;part=1;html=1;whiteSpace=wrap;" vertex="1" parent="eTRv6Jro5ZE7D0PdQX2G-208">
          <mxGeometry y="120" width="350" height="10" as="geometry" />
        </mxCell>
        <mxCell id="eTRv6Jro5ZE7D0PdQX2G-212" value="" style="edgeStyle=entityRelationEdgeStyle;fontSize=12;html=1;endArrow=ERmany;rounded=0;entryX=1;entryY=0.25;entryDx=0;entryDy=0;" edge="1" parent="1" target="eTRv6Jro5ZE7D0PdQX2G-209">
          <mxGeometry width="100" height="100" relative="1" as="geometry">
            <mxPoint x="570" y="810" as="sourcePoint" />
            <mxPoint x="650" y="650" as="targetPoint" />
          </mxGeometry>
        </mxCell>
        <mxCell id="eTRv6Jro5ZE7D0PdQX2G-213" value="Room&amp;nbsp; (номер)" style="swimlane;childLayout=stackLayout;horizontal=1;startSize=20;horizontalStack=0;rounded=1;fontSize=14;fontStyle=0;strokeWidth=2;resizeParent=0;resizeLast=1;shadow=0;dashed=0;align=center;arcSize=4;whiteSpace=wrap;html=1;" vertex="1" parent="1">
          <mxGeometry x="210" y="400" width="350" height="120" as="geometry" />
        </mxCell>
        <mxCell id="eTRv6Jro5ZE7D0PdQX2G-214" value="room_id&amp;nbsp; &amp;nbsp; &amp;nbsp; &amp;nbsp; &amp;nbsp; &amp;nbsp; &amp;nbsp; number&amp;nbsp; &amp;nbsp; &amp;nbsp; &amp;nbsp; &amp;nbsp; &amp;nbsp; &amp;nbsp; Уникальный&amp;nbsp;&amp;nbsp;&lt;span style=&quot;color: light-dark(rgb(0, 0, 0), rgb(255, 255, 255)); background-color: transparent;&quot;&gt;идентификатор&lt;/span&gt;&lt;div&gt;&lt;span style=&quot;color: light-dark(rgb(0, 0, 0), rgb(255, 255, 255)); background-color: transparent;&quot;&gt;hotel_id&amp;nbsp; &amp;nbsp; &amp;nbsp; &amp;nbsp; &amp;nbsp; &amp;nbsp; &amp;nbsp; &amp;nbsp;&lt;/span&gt;&lt;span style=&quot;background-color: transparent; color: light-dark(rgb(0, 0, 0), rgb(255, 255, 255));&quot;&gt;number&amp;nbsp; &amp;nbsp; &amp;nbsp; &amp;nbsp;&lt;/span&gt;&lt;span style=&quot;background-color: transparent; color: light-dark(rgb(0, 0, 0), rgb(255, 255, 255));&quot;&gt;&amp;nbsp;&amp;nbsp; &amp;nbsp; &amp;nbsp;Ссылка на отель&lt;/span&gt;&lt;/div&gt;&lt;div&gt;room_type_id&amp;nbsp; &amp;nbsp; &amp;nbsp;&amp;nbsp;&lt;span style=&quot;background-color: transparent; color: light-dark(rgb(0, 0, 0), rgb(255, 255, 255));&quot;&gt;number&amp;nbsp; &amp;nbsp; &amp;nbsp;&amp;nbsp;&lt;/span&gt;&lt;span style=&quot;background-color: transparent; color: light-dark(rgb(0, 0, 0), rgb(255, 255, 255));&quot;&gt;&amp;nbsp; &amp;nbsp; &amp;nbsp; &amp;nbsp;Ссылка на тип номера&lt;/span&gt;&lt;/div&gt;&lt;div&gt;room_number&amp;nbsp; &amp;nbsp; &amp;nbsp;&amp;nbsp;&lt;span style=&quot;background-color: transparent; color: light-dark(rgb(0, 0, 0), rgb(255, 255, 255));&quot;&gt;string&lt;/span&gt;&lt;span style=&quot;background-color: transparent; color: light-dark(rgb(0, 0, 0), rgb(255, 255, 255));&quot;&gt;&amp;nbsp; &amp;nbsp; &amp;nbsp; &amp;nbsp; &amp;nbsp; &amp;nbsp; &amp;nbsp; &amp;nbsp; № комнаты&lt;/span&gt;&lt;/div&gt;" style="align=left;strokeColor=none;fillColor=none;spacingLeft=4;spacingRight=4;fontSize=12;verticalAlign=top;resizable=0;rotatable=0;part=1;html=1;whiteSpace=wrap;" vertex="1" parent="eTRv6Jro5ZE7D0PdQX2G-213">
          <mxGeometry y="20" width="350" height="100" as="geometry" />
        </mxCell>
        <mxCell id="eTRv6Jro5ZE7D0PdQX2G-215" value="" style="edgeStyle=entityRelationEdgeStyle;fontSize=12;html=1;endArrow=ERmany;rounded=0;entryX=1;entryY=0.5;entryDx=0;entryDy=0;" edge="1" parent="1" target="eTRv6Jro5ZE7D0PdQX2G-209">
          <mxGeometry width="100" height="100" relative="1" as="geometry">
            <mxPoint x="570" y="430" as="sourcePoint" />
            <mxPoint x="680" y="670" as="targetPoint" />
            <Array as="points">
              <mxPoint x="620" y="600" />
              <mxPoint x="550" y="600" />
            </Array>
          </mxGeometry>
        </mxCell>
        <mxCell id="eTRv6Jro5ZE7D0PdQX2G-216" value="Room_type&amp;nbsp; &amp;nbsp; &amp;nbsp; (Тип номера)" style="swimlane;childLayout=stackLayout;horizontal=1;startSize=20;horizontalStack=0;rounded=1;fontSize=14;fontStyle=0;strokeWidth=2;resizeParent=0;resizeLast=1;shadow=0;dashed=0;align=center;arcSize=4;whiteSpace=wrap;html=1;" vertex="1" parent="1">
          <mxGeometry x="210" y="250" width="350" height="120" as="geometry" />
        </mxCell>
        <mxCell id="eTRv6Jro5ZE7D0PdQX2G-217" value="room_type_id&amp;nbsp; &amp;nbsp; &amp;nbsp; number&amp;nbsp; &amp;nbsp;Уникальный идентификатор&lt;div&gt;hotel_id&amp;nbsp; &amp;nbsp; &amp;nbsp; &amp;nbsp; &amp;nbsp; &amp;nbsp; &amp;nbsp; &amp;nbsp;&lt;span style=&quot;background-color: transparent; color: light-dark(rgb(0, 0, 0), rgb(255, 255, 255));&quot;&gt;&amp;nbsp;number&amp;nbsp;&lt;/span&gt;&lt;span style=&quot;background-color: transparent; color: light-dark(rgb(0, 0, 0), rgb(255, 255, 255));&quot;&gt;&amp;nbsp;Ссылка на отель&lt;/span&gt;&lt;/div&gt;&lt;div&gt;type_name&amp;nbsp; &amp;nbsp; &amp;nbsp; &amp;nbsp; &amp;nbsp; &amp;nbsp;&lt;span style=&quot;background-color: transparent; color: light-dark(rgb(0, 0, 0), rgb(255, 255, 255));&quot;&gt;string&lt;/span&gt;&lt;span style=&quot;background-color: transparent; color: light-dark(rgb(0, 0, 0), rgb(255, 255, 255));&quot;&gt;&amp;nbsp;&amp;nbsp; &amp;nbsp; Название типа(например &quot;Люкс&quot;)&lt;/span&gt;&lt;/div&gt;&lt;div&gt;description&amp;nbsp; &amp;nbsp; &amp;nbsp; &amp;nbsp; &amp;nbsp; &amp;nbsp;&amp;nbsp;&lt;span style=&quot;background-color: transparent; color: light-dark(rgb(0, 0, 0), rgb(255, 255, 255));&quot;&gt;string&lt;/span&gt;&lt;span style=&quot;background-color: transparent; color: light-dark(rgb(0, 0, 0), rgb(255, 255, 255));&quot;&gt;&amp;nbsp; &amp;nbsp; &amp;nbsp;Описание типа номера&lt;/span&gt;&lt;/div&gt;&lt;div&gt;price_per_night&amp;nbsp; &amp;nbsp; &amp;nbsp;&lt;span style=&quot;background-color: transparent; color: light-dark(rgb(0, 0, 0), rgb(255, 255, 255));&quot;&gt;string&amp;nbsp;&lt;/span&gt;&lt;span style=&quot;background-color: transparent; color: light-dark(rgb(0, 0, 0), rgb(255, 255, 255));&quot;&gt;&amp;nbsp; &amp;nbsp;Стоимость за ночь&lt;/span&gt;&lt;/div&gt;" style="align=left;strokeColor=none;fillColor=none;spacingLeft=4;spacingRight=4;fontSize=12;verticalAlign=top;resizable=0;rotatable=0;part=1;html=1;whiteSpace=wrap;" vertex="1" parent="eTRv6Jro5ZE7D0PdQX2G-216">
          <mxGeometry y="20" width="350" height="100" as="geometry" />
        </mxCell>
        <mxCell id="eTRv6Jro5ZE7D0PdQX2G-218" value="" style="edgeStyle=entityRelationEdgeStyle;fontSize=12;html=1;endArrow=ERmany;rounded=0;entryX=1;entryY=0.397;entryDx=0;entryDy=0;entryPerimeter=0;" edge="1" parent="1" target="eTRv6Jro5ZE7D0PdQX2G-214">
          <mxGeometry width="100" height="100" relative="1" as="geometry">
            <mxPoint x="570" y="281" as="sourcePoint" />
            <mxPoint x="191.5" y="460" as="targetPoint" />
            <Array as="points">
              <mxPoint x="572.5" y="330" />
            </Array>
          </mxGeometry>
        </mxCell>
        <mxCell id="eTRv6Jro5ZE7D0PdQX2G-219" value="Hotel&amp;nbsp; (отель)" style="swimlane;childLayout=stackLayout;horizontal=1;startSize=20;horizontalStack=0;rounded=1;fontSize=14;fontStyle=0;strokeWidth=2;resizeParent=0;resizeLast=1;shadow=0;dashed=0;align=center;arcSize=4;whiteSpace=wrap;html=1;" vertex="1" parent="1">
          <mxGeometry x="210" y="50" width="350" height="120" as="geometry" />
        </mxCell>
        <mxCell id="eTRv6Jro5ZE7D0PdQX2G-220" value="hotel_id&amp;nbsp; &amp;nbsp; &amp;nbsp; &amp;nbsp;number&amp;nbsp; &amp;nbsp; &amp;nbsp; &amp;nbsp; &amp;nbsp; &amp;nbsp; Уникальный идентификатор&lt;div&gt;name&amp;nbsp; &amp;nbsp; &amp;nbsp; &amp;nbsp; &amp;nbsp; &amp;nbsp;string&amp;nbsp; &amp;nbsp; &amp;nbsp; &amp;nbsp; &amp;nbsp; &amp;nbsp; &amp;nbsp; &amp;nbsp;Название отеля&lt;/div&gt;&lt;div&gt;stars&amp;nbsp; &amp;nbsp; &amp;nbsp; &amp;nbsp; &amp;nbsp; &amp;nbsp; &lt;span style=&quot;background-color: transparent; color: light-dark(rgb(0, 0, 0), rgb(255, 255, 255));&quot;&gt;number&lt;/span&gt;&lt;span style=&quot;background-color: transparent; color: light-dark(rgb(0, 0, 0), rgb(255, 255, 255));&quot;&gt;&amp;nbsp; &amp;nbsp; &amp;nbsp; &amp;nbsp; &amp;nbsp; &amp;nbsp; Количество звезд (1 -5)&lt;/span&gt;&lt;/div&gt;&lt;div&gt;discription&amp;nbsp; &amp;nbsp;&amp;nbsp;&lt;span style=&quot;background-color: transparent; color: light-dark(rgb(0, 0, 0), rgb(255, 255, 255));&quot;&gt;string&amp;nbsp;&lt;/span&gt;&lt;span style=&quot;background-color: transparent; color: light-dark(rgb(0, 0, 0), rgb(255, 255, 255));&quot;&gt;&amp;nbsp; &amp;nbsp; &amp;nbsp; &amp;nbsp; &amp;nbsp; &amp;nbsp; &amp;nbsp; Описание отеля&lt;/span&gt;&lt;/div&gt;&lt;div&gt;country&amp;nbsp; &amp;nbsp; &amp;nbsp; &amp;nbsp; &amp;nbsp;&lt;span style=&quot;background-color: transparent; color: light-dark(rgb(0, 0, 0), rgb(255, 255, 255));&quot;&gt;string&amp;nbsp;&lt;/span&gt;&lt;span style=&quot;background-color: transparent; color: light-dark(rgb(0, 0, 0), rgb(255, 255, 255));&quot;&gt;&amp;nbsp; &amp;nbsp; &amp;nbsp; &amp;nbsp; &amp;nbsp; &amp;nbsp; &amp;nbsp; Страна&lt;/span&gt;&lt;/div&gt;&lt;div&gt;city&amp;nbsp; &amp;nbsp; &amp;nbsp; &amp;nbsp; &amp;nbsp; &amp;nbsp; &amp;nbsp; &amp;nbsp;&lt;span style=&quot;background-color: transparent; color: light-dark(rgb(0, 0, 0), rgb(255, 255, 255));&quot;&gt;&amp;nbsp;string&amp;nbsp; &amp;nbsp; &amp;nbsp;&lt;/span&gt;&lt;span style=&quot;background-color: transparent; color: light-dark(rgb(0, 0, 0), rgb(255, 255, 255));&quot;&gt;&amp;nbsp;&amp;nbsp; &amp;nbsp; &amp;nbsp; &amp;nbsp; &amp;nbsp;Город&lt;/span&gt;&lt;/div&gt;" style="align=left;strokeColor=none;fillColor=none;spacingLeft=4;spacingRight=4;fontSize=12;verticalAlign=top;resizable=0;rotatable=0;part=1;html=1;whiteSpace=wrap;" vertex="1" parent="eTRv6Jro5ZE7D0PdQX2G-219">
          <mxGeometry y="20" width="350" height="90" as="geometry" />
        </mxCell>
        <mxCell id="eTRv6Jro5ZE7D0PdQX2G-221" style="align=left;strokeColor=none;fillColor=none;spacingLeft=4;spacingRight=4;fontSize=12;verticalAlign=top;resizable=0;rotatable=0;part=1;html=1;whiteSpace=wrap;" vertex="1" parent="eTRv6Jro5ZE7D0PdQX2G-219">
          <mxGeometry y="110" width="350" height="90" as="geometry" />
        </mxCell>
        <mxCell id="eTRv6Jro5ZE7D0PdQX2G-222" style="align=left;strokeColor=none;fillColor=none;spacingLeft=4;spacingRight=4;fontSize=12;verticalAlign=top;resizable=0;rotatable=0;part=1;html=1;whiteSpace=wrap;" vertex="1" parent="eTRv6Jro5ZE7D0PdQX2G-219">
          <mxGeometry y="200" width="350" height="-90" as="geometry" />
        </mxCell>
        <mxCell id="eTRv6Jro5ZE7D0PdQX2G-223" style="align=left;strokeColor=none;fillColor=none;spacingLeft=4;spacingRight=4;fontSize=12;verticalAlign=top;resizable=0;rotatable=0;part=1;html=1;whiteSpace=wrap;" vertex="1" parent="eTRv6Jro5ZE7D0PdQX2G-219">
          <mxGeometry y="110" width="350" as="geometry" />
        </mxCell>
        <mxCell id="eTRv6Jro5ZE7D0PdQX2G-224" style="align=left;strokeColor=none;fillColor=none;spacingLeft=4;spacingRight=4;fontSize=12;verticalAlign=top;resizable=0;rotatable=0;part=1;html=1;whiteSpace=wrap;" vertex="1" parent="eTRv6Jro5ZE7D0PdQX2G-219">
          <mxGeometry y="110" width="350" as="geometry" />
        </mxCell>
        <mxCell id="eTRv6Jro5ZE7D0PdQX2G-225" style="align=left;strokeColor=none;fillColor=none;spacingLeft=4;spacingRight=4;fontSize=12;verticalAlign=top;resizable=0;rotatable=0;part=1;html=1;whiteSpace=wrap;" vertex="1" parent="eTRv6Jro5ZE7D0PdQX2G-219">
          <mxGeometry y="110" width="350" as="geometry" />
        </mxCell>
        <mxCell id="eTRv6Jro5ZE7D0PdQX2G-226" style="align=left;strokeColor=none;fillColor=none;spacingLeft=4;spacingRight=4;fontSize=12;verticalAlign=top;resizable=0;rotatable=0;part=1;html=1;whiteSpace=wrap;" vertex="1" parent="eTRv6Jro5ZE7D0PdQX2G-219">
          <mxGeometry y="110" width="350" height="10" as="geometry" />
        </mxCell>
        <mxCell id="eTRv6Jro5ZE7D0PdQX2G-227" value="" style="endArrow=none;html=1;rounded=0;entryX=0.01;entryY=0.305;entryDx=0;entryDy=0;entryPerimeter=0;" edge="1" parent="1" target="eTRv6Jro5ZE7D0PdQX2G-214">
          <mxGeometry relative="1" as="geometry">
            <mxPoint x="160" y="450" as="sourcePoint" />
            <mxPoint x="590" y="310" as="targetPoint" />
          </mxGeometry>
        </mxCell>
        <mxCell id="eTRv6Jro5ZE7D0PdQX2G-228" value="" style="endArrow=none;html=1;rounded=0;" edge="1" parent="1">
          <mxGeometry relative="1" as="geometry">
            <mxPoint x="160" y="80" as="sourcePoint" />
            <mxPoint x="160" y="450" as="targetPoint" />
          </mxGeometry>
        </mxCell>
        <mxCell id="eTRv6Jro5ZE7D0PdQX2G-229" value="" style="endArrow=none;html=1;rounded=0;entryX=-0.005;entryY=0.117;entryDx=0;entryDy=0;entryPerimeter=0;" edge="1" parent="1" target="eTRv6Jro5ZE7D0PdQX2G-220">
          <mxGeometry relative="1" as="geometry">
            <mxPoint x="160" y="80" as="sourcePoint" />
            <mxPoint x="590" y="310" as="targetPoint" />
          </mxGeometry>
        </mxCell>
        <mxCell id="eTRv6Jro5ZE7D0PdQX2G-230" value="1" style="resizable=0;html=1;whiteSpace=wrap;align=right;verticalAlign=bottom;" connectable="0" vertex="1" parent="eTRv6Jro5ZE7D0PdQX2G-229">
          <mxGeometry x="1" relative="1" as="geometry" />
        </mxCell>
        <mxCell id="eTRv6Jro5ZE7D0PdQX2G-231" value="" style="endArrow=none;html=1;rounded=0;entryX=-0.007;entryY=0.144;entryDx=0;entryDy=0;entryPerimeter=0;" edge="1" parent="1" target="eTRv6Jro5ZE7D0PdQX2G-220">
          <mxGeometry relative="1" as="geometry">
            <mxPoint x="180" y="83" as="sourcePoint" />
            <mxPoint x="590" y="310" as="targetPoint" />
          </mxGeometry>
        </mxCell>
        <mxCell id="eTRv6Jro5ZE7D0PdQX2G-232" value="1" style="resizable=0;html=1;whiteSpace=wrap;align=right;verticalAlign=bottom;" connectable="0" vertex="1" parent="eTRv6Jro5ZE7D0PdQX2G-231">
          <mxGeometry x="1" relative="1" as="geometry" />
        </mxCell>
        <mxCell id="eTRv6Jro5ZE7D0PdQX2G-233" value="" style="endArrow=none;html=1;rounded=0;" edge="1" parent="1">
          <mxGeometry relative="1" as="geometry">
            <mxPoint x="180" y="300" as="sourcePoint" />
            <mxPoint x="180" y="80" as="targetPoint" />
          </mxGeometry>
        </mxCell>
        <mxCell id="eTRv6Jro5ZE7D0PdQX2G-234" value="1" style="resizable=0;html=1;whiteSpace=wrap;align=right;verticalAlign=bottom;" connectable="0" vertex="1" parent="eTRv6Jro5ZE7D0PdQX2G-233">
          <mxGeometry x="1" relative="1" as="geometry" />
        </mxCell>
        <mxCell id="eTRv6Jro5ZE7D0PdQX2G-235" value="" style="endArrow=none;html=1;rounded=0;entryX=0.002;entryY=0.305;entryDx=0;entryDy=0;entryPerimeter=0;" edge="1" parent="1" target="eTRv6Jro5ZE7D0PdQX2G-217">
          <mxGeometry relative="1" as="geometry">
            <mxPoint x="180" y="300" as="sourcePoint" />
            <mxPoint x="590" y="310" as="targetPoint" />
          </mxGeometry>
        </mxCell>
        <mxCell id="eTRv6Jro5ZE7D0PdQX2G-236" value="1" style="resizable=0;html=1;whiteSpace=wrap;align=right;verticalAlign=bottom;" connectable="0" vertex="1" parent="eTRv6Jro5ZE7D0PdQX2G-235">
          <mxGeometry x="1" relative="1" as="geometry" />
        </mxCell>
        <mxCell id="eTRv6Jro5ZE7D0PdQX2G-237" value="&lt;div&gt;&lt;b style=&quot;text-decoration-line: underline; background-color: transparent; color: light-dark(rgb(0, 0, 0), rgb(255, 255, 255));&quot;&gt;&lt;font style=&quot;font-size: 14px;&quot;&gt;&lt;u&gt;Физическая модель&lt;/u&gt;&lt;/font&gt;&lt;/b&gt;&lt;/div&gt;" style="text;strokeColor=none;fillColor=none;spacingLeft=4;spacingRight=4;overflow=hidden;rotatable=0;points=[[0,0.5],[1,0.5]];portConstraint=eastwest;fontSize=12;whiteSpace=wrap;html=1;" vertex="1" parent="1">
          <mxGeometry x="280" y="970" width="260" height="40" as="geometry" />
        </mxCell>
        <mxCell id="M_pUeQeTpwqzAwjSD4fn-1" value="Client" style="swimlane;childLayout=stackLayout;horizontal=1;startSize=20;horizontalStack=0;rounded=1;fontSize=14;fontStyle=0;strokeWidth=2;resizeParent=0;resizeLast=1;shadow=0;dashed=0;align=center;arcSize=4;whiteSpace=wrap;html=1;" vertex="1" parent="1">
          <mxGeometry x="360" y="1740" width="310" height="120" as="geometry" />
        </mxCell>
        <mxCell id="M_pUeQeTpwqzAwjSD4fn-2" value="client_id&amp;nbsp; &amp;nbsp; &amp;nbsp; &amp;nbsp; &amp;nbsp; &amp;nbsp; &amp;nbsp; int&amp;nbsp; &amp;nbsp; &amp;nbsp; &amp;nbsp; &amp;nbsp; Уникальный&amp;nbsp;&amp;nbsp;&lt;span style=&quot;background-color: transparent; color: light-dark(rgb(0, 0, 0), rgb(255, 255, 255));&quot;&gt;идентификатор&lt;/span&gt;&lt;div&gt;full_name&amp;nbsp; &amp;nbsp; &amp;nbsp; &amp;nbsp; &amp;nbsp; &amp;nbsp; varchar&amp;nbsp; &amp;nbsp; ФИО клиента&lt;/div&gt;&lt;div&gt;phone_number&amp;nbsp; &amp;nbsp;varchar&amp;nbsp; &amp;nbsp; &amp;nbsp;№ телефона&lt;/div&gt;&lt;div&gt;email&amp;nbsp; &amp;nbsp; &amp;nbsp; &amp;nbsp; &amp;nbsp; &amp;nbsp; &amp;nbsp; &amp;nbsp; &amp;nbsp; &amp;nbsp;varchar&amp;nbsp; &amp;nbsp; &amp;nbsp;Эл. почта&lt;/div&gt;&lt;div&gt;country&amp;nbsp; &amp;nbsp; &amp;nbsp; &amp;nbsp; &amp;nbsp; &amp;nbsp; &amp;nbsp; &amp;nbsp; varchar&amp;nbsp; &amp;nbsp; &amp;nbsp;Страна&amp;nbsp;&lt;/div&gt;" style="align=left;strokeColor=none;fillColor=none;spacingLeft=4;spacingRight=4;fontSize=12;verticalAlign=top;resizable=0;rotatable=0;part=1;html=1;whiteSpace=wrap;" vertex="1" parent="M_pUeQeTpwqzAwjSD4fn-1">
          <mxGeometry y="20" width="310" height="100" as="geometry" />
        </mxCell>
        <mxCell id="M_pUeQeTpwqzAwjSD4fn-3" value="Booking&amp;nbsp; (бронирование)" style="swimlane;childLayout=stackLayout;horizontal=1;startSize=30;horizontalStack=0;rounded=1;fontSize=14;fontStyle=0;strokeWidth=2;resizeParent=0;resizeLast=1;shadow=0;dashed=0;align=center;arcSize=4;whiteSpace=wrap;html=1;" vertex="1" parent="1">
          <mxGeometry x="320" y="1540" width="350" height="130" as="geometry" />
        </mxCell>
        <mxCell id="M_pUeQeTpwqzAwjSD4fn-4" value="booking_id&amp;nbsp; &amp;nbsp; &amp;nbsp; &amp;nbsp; &amp;nbsp; &amp;nbsp; &amp;nbsp; &amp;nbsp; &amp;nbsp;int&amp;nbsp; &amp;nbsp; &amp;nbsp; &amp;nbsp; &amp;nbsp; &amp;nbsp; &amp;nbsp; Уникальный&amp;nbsp;&amp;nbsp;&lt;span style=&quot;color: light-dark(rgb(0, 0, 0), rgb(255, 255, 255)); background-color: transparent;&quot;&gt;идентификатор&lt;/span&gt;&lt;div&gt;client_id&amp;nbsp; &amp;nbsp; &amp;nbsp; &amp;nbsp; &amp;nbsp; &amp;nbsp; &amp;nbsp; &amp;nbsp; &amp;nbsp; &amp;nbsp; &amp;nbsp;int&amp;nbsp; &amp;nbsp; &amp;nbsp; &amp;nbsp; &amp;nbsp; &amp;nbsp; &amp;nbsp; Ссылка на клиента&lt;/div&gt;&lt;div&gt;room_id&amp;nbsp; &amp;nbsp; &amp;nbsp; &amp;nbsp; &amp;nbsp; &amp;nbsp; &amp;nbsp; &amp;nbsp; &amp;nbsp; &amp;nbsp; &amp;nbsp;int&amp;nbsp; &amp;nbsp; &amp;nbsp; &amp;nbsp; &amp;nbsp; &amp;nbsp; &amp;nbsp; Ссылка на номер&amp;nbsp;&lt;/div&gt;&lt;div&gt;check_in_date&amp;nbsp; &amp;nbsp; &amp;nbsp; &amp;nbsp; &amp;nbsp; datetime&amp;nbsp; &amp;nbsp; &amp;nbsp;Дата и время заезда&lt;/div&gt;&lt;div&gt;check_out_date&amp;nbsp; &amp;nbsp; &amp;nbsp; &amp;nbsp; datetime&amp;nbsp; &amp;nbsp; &amp;nbsp;Дата и время выезда&lt;/div&gt;&lt;div&gt;prepaynment_mark&amp;nbsp; &amp;nbsp;boolean&amp;nbsp; &amp;nbsp; &amp;nbsp;Отметка о предоплате&lt;/div&gt;" style="align=left;strokeColor=none;fillColor=none;spacingLeft=4;spacingRight=4;fontSize=12;verticalAlign=top;resizable=0;rotatable=0;part=1;html=1;whiteSpace=wrap;" vertex="1" parent="M_pUeQeTpwqzAwjSD4fn-3">
          <mxGeometry y="30" width="350" height="90" as="geometry" />
        </mxCell>
        <mxCell id="M_pUeQeTpwqzAwjSD4fn-5" style="align=left;strokeColor=none;fillColor=none;spacingLeft=4;spacingRight=4;fontSize=12;verticalAlign=top;resizable=0;rotatable=0;part=1;html=1;whiteSpace=wrap;" vertex="1" parent="M_pUeQeTpwqzAwjSD4fn-3">
          <mxGeometry y="120" width="350" as="geometry" />
        </mxCell>
        <mxCell id="M_pUeQeTpwqzAwjSD4fn-6" style="align=left;strokeColor=none;fillColor=none;spacingLeft=4;spacingRight=4;fontSize=12;verticalAlign=top;resizable=0;rotatable=0;part=1;html=1;whiteSpace=wrap;" vertex="1" parent="M_pUeQeTpwqzAwjSD4fn-3">
          <mxGeometry y="120" width="350" height="10" as="geometry" />
        </mxCell>
        <mxCell id="M_pUeQeTpwqzAwjSD4fn-7" value="" style="edgeStyle=entityRelationEdgeStyle;fontSize=12;html=1;endArrow=ERmany;rounded=0;entryX=1;entryY=0.25;entryDx=0;entryDy=0;" edge="1" parent="1" target="M_pUeQeTpwqzAwjSD4fn-4">
          <mxGeometry width="100" height="100" relative="1" as="geometry">
            <mxPoint x="680" y="1780" as="sourcePoint" />
            <mxPoint x="760" y="1620" as="targetPoint" />
          </mxGeometry>
        </mxCell>
        <mxCell id="M_pUeQeTpwqzAwjSD4fn-8" value="Room&amp;nbsp; (номер)" style="swimlane;childLayout=stackLayout;horizontal=1;startSize=20;horizontalStack=0;rounded=1;fontSize=14;fontStyle=0;strokeWidth=2;resizeParent=0;resizeLast=1;shadow=0;dashed=0;align=center;arcSize=4;whiteSpace=wrap;html=1;" vertex="1" parent="1">
          <mxGeometry x="320" y="1370" width="350" height="120" as="geometry" />
        </mxCell>
        <mxCell id="M_pUeQeTpwqzAwjSD4fn-9" value="room_id&amp;nbsp; &amp;nbsp; &amp;nbsp; &amp;nbsp; &amp;nbsp; &amp;nbsp; &amp;nbsp; &amp;nbsp; int&amp;nbsp; &amp;nbsp; &amp;nbsp; &amp;nbsp; &amp;nbsp; &amp;nbsp; &amp;nbsp; Уникальный&amp;nbsp;&amp;nbsp;&lt;span style=&quot;color: light-dark(rgb(0, 0, 0), rgb(255, 255, 255)); background-color: transparent;&quot;&gt;идентификатор&lt;/span&gt;&lt;div&gt;&lt;span style=&quot;color: light-dark(rgb(0, 0, 0), rgb(255, 255, 255)); background-color: transparent;&quot;&gt;hotel_id&amp;nbsp; &amp;nbsp; &amp;nbsp; &amp;nbsp; &amp;nbsp; &amp;nbsp; &amp;nbsp; &amp;nbsp; int&amp;nbsp; &amp;nbsp; &amp;nbsp; &amp;nbsp; &amp;nbsp; &amp;nbsp; &amp;nbsp; Ссылка на отель&lt;/span&gt;&lt;/div&gt;&lt;div&gt;room_type_id&amp;nbsp; &amp;nbsp; &amp;nbsp; &amp;nbsp;int&amp;nbsp; &amp;nbsp; &amp;nbsp; &amp;nbsp; &amp;nbsp; &amp;nbsp; &amp;nbsp; Ссылка на тип номера&lt;/div&gt;&lt;div&gt;room_number&amp;nbsp; &amp;nbsp; &amp;nbsp; varchar&amp;nbsp; &amp;nbsp; &amp;nbsp; № комнаты&lt;/div&gt;" style="align=left;strokeColor=none;fillColor=none;spacingLeft=4;spacingRight=4;fontSize=12;verticalAlign=top;resizable=0;rotatable=0;part=1;html=1;whiteSpace=wrap;" vertex="1" parent="M_pUeQeTpwqzAwjSD4fn-8">
          <mxGeometry y="20" width="350" height="100" as="geometry" />
        </mxCell>
        <mxCell id="M_pUeQeTpwqzAwjSD4fn-10" value="" style="edgeStyle=entityRelationEdgeStyle;fontSize=12;html=1;endArrow=ERmany;rounded=0;entryX=1;entryY=0.5;entryDx=0;entryDy=0;" edge="1" parent="1" target="M_pUeQeTpwqzAwjSD4fn-4">
          <mxGeometry width="100" height="100" relative="1" as="geometry">
            <mxPoint x="680" y="1400" as="sourcePoint" />
            <mxPoint x="790" y="1640" as="targetPoint" />
            <Array as="points">
              <mxPoint x="730" y="1570" />
              <mxPoint x="660" y="1570" />
            </Array>
          </mxGeometry>
        </mxCell>
        <mxCell id="M_pUeQeTpwqzAwjSD4fn-11" value="Room_type&amp;nbsp; &amp;nbsp; &amp;nbsp; (Тип номера)" style="swimlane;childLayout=stackLayout;horizontal=1;startSize=20;horizontalStack=0;rounded=1;fontSize=14;fontStyle=0;strokeWidth=2;resizeParent=0;resizeLast=1;shadow=0;dashed=0;align=center;arcSize=4;whiteSpace=wrap;html=1;" vertex="1" parent="1">
          <mxGeometry x="320" y="1220" width="350" height="120" as="geometry" />
        </mxCell>
        <mxCell id="M_pUeQeTpwqzAwjSD4fn-12" value="room_type_id&amp;nbsp; &amp;nbsp; &amp;nbsp; int&amp;nbsp; &amp;nbsp; &amp;nbsp; &amp;nbsp; &amp;nbsp; &amp;nbsp; Уникальный идентификатор&lt;div&gt;hotel_id&amp;nbsp; &amp;nbsp; &amp;nbsp; &amp;nbsp; &amp;nbsp; &amp;nbsp; &amp;nbsp; &amp;nbsp;int&amp;nbsp; &amp;nbsp; &amp;nbsp; &amp;nbsp; &amp;nbsp; &amp;nbsp; Ссылка на отель&lt;/div&gt;&lt;div&gt;type_name&amp;nbsp; &amp;nbsp; &amp;nbsp; &amp;nbsp; &amp;nbsp;varchar&amp;nbsp; &amp;nbsp; &amp;nbsp;Название типа(например &quot;Люкс&quot;)&lt;/div&gt;&lt;div&gt;description&amp;nbsp; &amp;nbsp; &amp;nbsp; &amp;nbsp; &amp;nbsp; text&amp;nbsp; &amp;nbsp; &amp;nbsp; &amp;nbsp; &amp;nbsp; Описание типа номера&lt;/div&gt;&lt;div&gt;price_per_night&amp;nbsp; &amp;nbsp;decimal&amp;nbsp; &amp;nbsp;Стоимость за ночь&lt;/div&gt;" style="align=left;strokeColor=none;fillColor=none;spacingLeft=4;spacingRight=4;fontSize=12;verticalAlign=top;resizable=0;rotatable=0;part=1;html=1;whiteSpace=wrap;" vertex="1" parent="M_pUeQeTpwqzAwjSD4fn-11">
          <mxGeometry y="20" width="350" height="100" as="geometry" />
        </mxCell>
        <mxCell id="M_pUeQeTpwqzAwjSD4fn-13" value="" style="edgeStyle=entityRelationEdgeStyle;fontSize=12;html=1;endArrow=ERmany;rounded=0;entryX=1;entryY=0.397;entryDx=0;entryDy=0;entryPerimeter=0;" edge="1" parent="1" target="M_pUeQeTpwqzAwjSD4fn-9">
          <mxGeometry width="100" height="100" relative="1" as="geometry">
            <mxPoint x="680" y="1251" as="sourcePoint" />
            <mxPoint x="301.5" y="1430" as="targetPoint" />
            <Array as="points">
              <mxPoint x="682.5" y="1300" />
            </Array>
          </mxGeometry>
        </mxCell>
        <mxCell id="M_pUeQeTpwqzAwjSD4fn-14" value="Hotel&amp;nbsp; (отель)" style="swimlane;childLayout=stackLayout;horizontal=1;startSize=20;horizontalStack=0;rounded=1;fontSize=14;fontStyle=0;strokeWidth=2;resizeParent=0;resizeLast=1;shadow=0;dashed=0;align=center;arcSize=4;whiteSpace=wrap;html=1;" vertex="1" parent="1">
          <mxGeometry x="320" y="1020" width="350" height="120" as="geometry" />
        </mxCell>
        <mxCell id="M_pUeQeTpwqzAwjSD4fn-15" value="hotel_id&amp;nbsp; &amp;nbsp; &amp;nbsp; &amp;nbsp;int&amp;nbsp; &amp;nbsp; &amp;nbsp; &amp;nbsp; &amp;nbsp; &amp;nbsp; &amp;nbsp; &amp;nbsp; &amp;nbsp; &amp;nbsp; &amp;nbsp;Уникальный идентификатор&lt;div&gt;name&amp;nbsp; &amp;nbsp; &amp;nbsp; &amp;nbsp; &amp;nbsp; &amp;nbsp;varchar&amp;nbsp; &amp;nbsp; &amp;nbsp; &amp;nbsp; &amp;nbsp; &amp;nbsp; Название отеля&lt;/div&gt;&lt;div&gt;stars&amp;nbsp; &amp;nbsp; &amp;nbsp; &amp;nbsp; &amp;nbsp; &amp;nbsp; &amp;nbsp;int&amp;nbsp; &amp;nbsp; &amp;nbsp; &amp;nbsp; &amp;nbsp; &amp;nbsp; &amp;nbsp; &amp;nbsp; &amp;nbsp; &amp;nbsp;Количество звезд (1 -5)&lt;/div&gt;&lt;div&gt;discription&amp;nbsp; &amp;nbsp; &amp;nbsp;varchar&amp;nbsp; &amp;nbsp; &amp;nbsp; &amp;nbsp; &amp;nbsp; &amp;nbsp;Описание отеля&lt;/div&gt;&lt;div&gt;country&amp;nbsp; &amp;nbsp; &amp;nbsp; &amp;nbsp; &amp;nbsp;varchar&amp;nbsp; &amp;nbsp; &amp;nbsp; &amp;nbsp; &amp;nbsp; &amp;nbsp;Страна&lt;/div&gt;&lt;div&gt;city&amp;nbsp; &amp;nbsp; &amp;nbsp; &amp;nbsp; &amp;nbsp; &amp;nbsp; &amp;nbsp; &amp;nbsp; varchar&amp;nbsp; &amp;nbsp; &amp;nbsp; &amp;nbsp; &amp;nbsp; &amp;nbsp;Город&lt;/div&gt;" style="align=left;strokeColor=none;fillColor=none;spacingLeft=4;spacingRight=4;fontSize=12;verticalAlign=top;resizable=0;rotatable=0;part=1;html=1;whiteSpace=wrap;" vertex="1" parent="M_pUeQeTpwqzAwjSD4fn-14">
          <mxGeometry y="20" width="350" height="90" as="geometry" />
        </mxCell>
        <mxCell id="M_pUeQeTpwqzAwjSD4fn-16" style="align=left;strokeColor=none;fillColor=none;spacingLeft=4;spacingRight=4;fontSize=12;verticalAlign=top;resizable=0;rotatable=0;part=1;html=1;whiteSpace=wrap;" vertex="1" parent="M_pUeQeTpwqzAwjSD4fn-14">
          <mxGeometry y="110" width="350" height="90" as="geometry" />
        </mxCell>
        <mxCell id="M_pUeQeTpwqzAwjSD4fn-17" style="align=left;strokeColor=none;fillColor=none;spacingLeft=4;spacingRight=4;fontSize=12;verticalAlign=top;resizable=0;rotatable=0;part=1;html=1;whiteSpace=wrap;" vertex="1" parent="M_pUeQeTpwqzAwjSD4fn-14">
          <mxGeometry y="200" width="350" height="-90" as="geometry" />
        </mxCell>
        <mxCell id="M_pUeQeTpwqzAwjSD4fn-18" style="align=left;strokeColor=none;fillColor=none;spacingLeft=4;spacingRight=4;fontSize=12;verticalAlign=top;resizable=0;rotatable=0;part=1;html=1;whiteSpace=wrap;" vertex="1" parent="M_pUeQeTpwqzAwjSD4fn-14">
          <mxGeometry y="110" width="350" as="geometry" />
        </mxCell>
        <mxCell id="M_pUeQeTpwqzAwjSD4fn-19" style="align=left;strokeColor=none;fillColor=none;spacingLeft=4;spacingRight=4;fontSize=12;verticalAlign=top;resizable=0;rotatable=0;part=1;html=1;whiteSpace=wrap;" vertex="1" parent="M_pUeQeTpwqzAwjSD4fn-14">
          <mxGeometry y="110" width="350" as="geometry" />
        </mxCell>
        <mxCell id="M_pUeQeTpwqzAwjSD4fn-20" style="align=left;strokeColor=none;fillColor=none;spacingLeft=4;spacingRight=4;fontSize=12;verticalAlign=top;resizable=0;rotatable=0;part=1;html=1;whiteSpace=wrap;" vertex="1" parent="M_pUeQeTpwqzAwjSD4fn-14">
          <mxGeometry y="110" width="350" as="geometry" />
        </mxCell>
        <mxCell id="M_pUeQeTpwqzAwjSD4fn-21" style="align=left;strokeColor=none;fillColor=none;spacingLeft=4;spacingRight=4;fontSize=12;verticalAlign=top;resizable=0;rotatable=0;part=1;html=1;whiteSpace=wrap;" vertex="1" parent="M_pUeQeTpwqzAwjSD4fn-14">
          <mxGeometry y="110" width="350" height="10" as="geometry" />
        </mxCell>
        <mxCell id="M_pUeQeTpwqzAwjSD4fn-22" value="" style="endArrow=none;html=1;rounded=0;entryX=0.01;entryY=0.305;entryDx=0;entryDy=0;entryPerimeter=0;" edge="1" parent="1" target="M_pUeQeTpwqzAwjSD4fn-9">
          <mxGeometry relative="1" as="geometry">
            <mxPoint x="270" y="1420" as="sourcePoint" />
            <mxPoint x="700" y="1280" as="targetPoint" />
          </mxGeometry>
        </mxCell>
        <mxCell id="M_pUeQeTpwqzAwjSD4fn-23" value="" style="endArrow=none;html=1;rounded=0;" edge="1" parent="1">
          <mxGeometry relative="1" as="geometry">
            <mxPoint x="270" y="1050" as="sourcePoint" />
            <mxPoint x="270" y="1420" as="targetPoint" />
          </mxGeometry>
        </mxCell>
        <mxCell id="M_pUeQeTpwqzAwjSD4fn-24" value="" style="endArrow=none;html=1;rounded=0;entryX=-0.005;entryY=0.117;entryDx=0;entryDy=0;entryPerimeter=0;" edge="1" parent="1" target="M_pUeQeTpwqzAwjSD4fn-15">
          <mxGeometry relative="1" as="geometry">
            <mxPoint x="270" y="1050" as="sourcePoint" />
            <mxPoint x="700" y="1280" as="targetPoint" />
          </mxGeometry>
        </mxCell>
        <mxCell id="M_pUeQeTpwqzAwjSD4fn-25" value="1" style="resizable=0;html=1;whiteSpace=wrap;align=right;verticalAlign=bottom;" connectable="0" vertex="1" parent="M_pUeQeTpwqzAwjSD4fn-24">
          <mxGeometry x="1" relative="1" as="geometry" />
        </mxCell>
        <mxCell id="M_pUeQeTpwqzAwjSD4fn-26" value="" style="endArrow=none;html=1;rounded=0;entryX=-0.007;entryY=0.144;entryDx=0;entryDy=0;entryPerimeter=0;" edge="1" parent="1" target="M_pUeQeTpwqzAwjSD4fn-15">
          <mxGeometry relative="1" as="geometry">
            <mxPoint x="290" y="1053" as="sourcePoint" />
            <mxPoint x="700" y="1280" as="targetPoint" />
          </mxGeometry>
        </mxCell>
        <mxCell id="M_pUeQeTpwqzAwjSD4fn-27" value="1" style="resizable=0;html=1;whiteSpace=wrap;align=right;verticalAlign=bottom;" connectable="0" vertex="1" parent="M_pUeQeTpwqzAwjSD4fn-26">
          <mxGeometry x="1" relative="1" as="geometry" />
        </mxCell>
        <mxCell id="M_pUeQeTpwqzAwjSD4fn-28" value="" style="endArrow=none;html=1;rounded=0;" edge="1" parent="1">
          <mxGeometry relative="1" as="geometry">
            <mxPoint x="290" y="1270" as="sourcePoint" />
            <mxPoint x="290" y="1050" as="targetPoint" />
          </mxGeometry>
        </mxCell>
        <mxCell id="M_pUeQeTpwqzAwjSD4fn-29" value="1" style="resizable=0;html=1;whiteSpace=wrap;align=right;verticalAlign=bottom;" connectable="0" vertex="1" parent="M_pUeQeTpwqzAwjSD4fn-28">
          <mxGeometry x="1" relative="1" as="geometry" />
        </mxCell>
        <mxCell id="M_pUeQeTpwqzAwjSD4fn-30" value="" style="endArrow=none;html=1;rounded=0;entryX=0.002;entryY=0.305;entryDx=0;entryDy=0;entryPerimeter=0;" edge="1" parent="1" target="M_pUeQeTpwqzAwjSD4fn-12">
          <mxGeometry relative="1" as="geometry">
            <mxPoint x="290" y="1270" as="sourcePoint" />
            <mxPoint x="700" y="1280" as="targetPoint" />
          </mxGeometry>
        </mxCell>
        <mxCell id="M_pUeQeTpwqzAwjSD4fn-31" value="1" style="resizable=0;html=1;whiteSpace=wrap;align=right;verticalAlign=bottom;" connectable="0" vertex="1" parent="M_pUeQeTpwqzAwjSD4fn-30">
          <mxGeometry x="1" relative="1" as="geometry" />
        </mxCell>
      </root>
    </mxGraphModel>
  </diagram>
</mxfile>
